<svg width="192" height="232" viewBox="0 0 192 232" fill="none" xmlns="http://www.w3.org/2000/svg">
<g filter="url(#filter0_d_0_1159)">
<path d="M43 49.8868C43 46.0833 46.0833 43 49.8868 43H165.113C168.917 43 172 46.0833 172 49.8868V171.783C172 181.292 164.292 189 154.783 189H49.8868C46.0833 189 43 185.917 43 182.113V49.8868Z" fill="white"/>
<path d="M88.864 102.6V99.504H94.648V117H91.192V102.6H88.864ZM109.727 102.408H101.951V106.512C102.287 106.096 102.767 105.76 103.391 105.504C104.015 105.232 104.679 105.096 105.383 105.096C106.663 105.096 107.711 105.376 108.527 105.936C109.343 106.496 109.935 107.216 110.303 108.096C110.671 108.96 110.855 109.888 110.855 110.88C110.855 112.72 110.327 114.2 109.271 115.32C108.231 116.44 106.743 117 104.807 117C102.983 117 101.527 116.544 100.439 115.632C99.3513 114.72 98.7353 113.528 98.5913 112.056H101.855C101.999 112.696 102.319 113.208 102.815 113.592C103.327 113.976 103.975 114.168 104.759 114.168C105.703 114.168 106.415 113.872 106.895 113.28C107.375 112.688 107.615 111.904 107.615 110.928C107.615 109.936 107.367 109.184 106.871 108.672C106.391 108.144 105.679 107.88 104.735 107.88C104.063 107.88 103.503 108.048 103.055 108.384C102.607 108.72 102.287 109.168 102.095 109.728H98.8793V99.456H109.727V102.408ZM121.669 117L117.157 111.336V117H113.797V99.24H117.157V109.344L121.621 103.704H125.989L120.133 110.376L126.037 117H121.669Z" fill="#09B451"/>
<path d="M86.5745 138.296H83.0825L82.4825 140H81.0545L84.0425 131.648H85.6265L88.6145 140H87.1745L86.5745 138.296ZM86.1905 137.18L84.8345 133.304L83.4665 137.18H86.1905ZM97.9177 133.28C98.4377 133.28 98.9017 133.388 99.3097 133.604C99.7257 133.82 100.05 134.14 100.282 134.564C100.522 134.988 100.642 135.5 100.642 136.1V140H99.2857V136.304C99.2857 135.712 99.1377 135.26 98.8417 134.948C98.5457 134.628 98.1417 134.468 97.6297 134.468C97.1177 134.468 96.7097 134.628 96.4057 134.948C96.1097 135.26 95.9617 135.712 95.9617 136.304V140H94.6057V136.304C94.6057 135.712 94.4577 135.26 94.1617 134.948C93.8657 134.628 93.4617 134.468 92.9497 134.468C92.4377 134.468 92.0297 134.628 91.7257 134.948C91.4297 135.26 91.2817 135.712 91.2817 136.304V140H89.9137V133.388H91.2817V134.144C91.5057 133.872 91.7897 133.66 92.1337 133.508C92.4777 133.356 92.8457 133.28 93.2377 133.28C93.7657 133.28 94.2377 133.392 94.6537 133.616C95.0697 133.84 95.3897 134.164 95.6137 134.588C95.8137 134.188 96.1257 133.872 96.5497 133.64C96.9737 133.4 97.4297 133.28 97.9177 133.28ZM101.926 136.664C101.926 136 102.062 135.412 102.334 134.9C102.614 134.388 102.99 133.992 103.462 133.712C103.942 133.424 104.47 133.28 105.046 133.28C105.566 133.28 106.018 133.384 106.402 133.592C106.794 133.792 107.106 134.044 107.338 134.348V133.388H108.718V140H107.338V139.016C107.106 139.328 106.79 139.588 106.39 139.796C105.99 140.004 105.534 140.108 105.022 140.108C104.454 140.108 103.934 139.964 103.462 139.676C102.99 139.38 102.614 138.972 102.334 138.452C102.062 137.924 101.926 137.328 101.926 136.664ZM107.338 136.688C107.338 136.232 107.242 135.836 107.05 135.5C106.866 135.164 106.622 134.908 106.318 134.732C106.014 134.556 105.686 134.468 105.334 134.468C104.982 134.468 104.654 134.556 104.35 134.732C104.046 134.9 103.798 135.152 103.606 135.488C103.422 135.816 103.33 136.208 103.33 136.664C103.33 137.12 103.422 137.52 103.606 137.864C103.798 138.208 104.046 138.472 104.35 138.656C104.662 138.832 104.99 138.92 105.334 138.92C105.686 138.92 106.014 138.832 106.318 138.656C106.622 138.48 106.866 138.224 107.05 137.888C107.242 137.544 107.338 137.144 107.338 136.688ZM111.727 138.884H114.727V140H110.143V138.884L113.155 134.504H110.143V133.388H114.727V134.504L111.727 138.884ZM116.86 132.512C116.612 132.512 116.404 132.428 116.236 132.26C116.068 132.092 115.984 131.884 115.984 131.636C115.984 131.388 116.068 131.18 116.236 131.012C116.404 130.844 116.612 130.76 116.86 130.76C117.1 130.76 117.304 130.844 117.472 131.012C117.64 131.18 117.724 131.388 117.724 131.636C117.724 131.884 117.64 132.092 117.472 132.26C117.304 132.428 117.1 132.512 116.86 132.512ZM117.532 133.388V140H116.164V133.388H117.532ZM122.664 133.28C123.184 133.28 123.648 133.388 124.056 133.604C124.472 133.82 124.796 134.14 125.028 134.564C125.26 134.988 125.376 135.5 125.376 136.1V140H124.02V136.304C124.02 135.712 123.872 135.26 123.576 134.948C123.28 134.628 122.876 134.468 122.364 134.468C121.852 134.468 121.444 134.628 121.14 134.948C120.844 135.26 120.696 135.712 120.696 136.304V140H119.328V133.388H120.696V134.144C120.92 133.872 121.204 133.66 121.548 133.508C121.9 133.356 122.272 133.28 122.664 133.28ZM129.785 133.28C130.297 133.28 130.749 133.384 131.141 133.592C131.541 133.792 131.853 134.044 132.077 134.348V133.388H133.457V140.108C133.457 140.716 133.329 141.256 133.073 141.728C132.817 142.208 132.445 142.584 131.957 142.856C131.477 143.128 130.901 143.264 130.229 143.264C129.333 143.264 128.589 143.052 127.997 142.628C127.405 142.212 127.069 141.644 126.989 140.924H128.345C128.449 141.268 128.669 141.544 129.005 141.752C129.349 141.968 129.757 142.076 130.229 142.076C130.781 142.076 131.225 141.908 131.561 141.572C131.905 141.236 132.077 140.748 132.077 140.108V139.004C131.845 139.316 131.529 139.58 131.129 139.796C130.737 140.004 130.289 140.108 129.785 140.108C129.209 140.108 128.681 139.964 128.201 139.676C127.729 139.38 127.353 138.972 127.073 138.452C126.801 137.924 126.665 137.328 126.665 136.664C126.665 136 126.801 135.412 127.073 134.9C127.353 134.388 127.729 133.992 128.201 133.712C128.681 133.424 129.209 133.28 129.785 133.28ZM132.077 136.688C132.077 136.232 131.981 135.836 131.789 135.5C131.605 135.164 131.361 134.908 131.057 134.732C130.753 134.556 130.425 134.468 130.073 134.468C129.721 134.468 129.393 134.556 129.089 134.732C128.785 134.9 128.537 135.152 128.345 135.488C128.161 135.816 128.069 136.208 128.069 136.664C128.069 137.12 128.161 137.52 128.345 137.864C128.537 138.208 128.785 138.472 129.089 138.656C129.401 138.832 129.729 138.92 130.073 138.92C130.425 138.92 130.753 138.832 131.057 138.656C131.361 138.48 131.605 138.224 131.789 137.888C131.981 137.544 132.077 137.144 132.077 136.688ZM60.7492 158.108C60.2292 158.108 59.7612 158.016 59.3452 157.832C58.9372 157.64 58.6132 157.384 58.3732 157.064C58.1332 156.736 58.0052 156.372 57.9892 155.972H59.4052C59.4292 156.252 59.5612 156.488 59.8012 156.68C60.0492 156.864 60.3572 156.956 60.7252 156.956C61.1092 156.956 61.4052 156.884 61.6132 156.74C61.8292 156.588 61.9372 156.396 61.9372 156.164C61.9372 155.916 61.8172 155.732 61.5772 155.612C61.3452 155.492 60.9732 155.36 60.4612 155.216C59.9652 155.08 59.5612 154.948 59.2492 154.82C58.9372 154.692 58.6652 154.496 58.4332 154.232C58.2092 153.968 58.0972 153.62 58.0972 153.188C58.0972 152.836 58.2012 152.516 58.4092 152.228C58.6172 151.932 58.9132 151.7 59.2972 151.532C59.6892 151.364 60.1372 151.28 60.6412 151.28C61.3932 151.28 61.9972 151.472 62.4532 151.856C62.9172 152.232 63.1652 152.748 63.1972 153.404H61.8292C61.8052 153.108 61.6852 152.872 61.4692 152.696C61.2532 152.52 60.9612 152.432 60.5932 152.432C60.2332 152.432 59.9572 152.5 59.7652 152.636C59.5732 152.772 59.4772 152.952 59.4772 153.176C59.4772 153.352 59.5412 153.5 59.6692 153.62C59.7972 153.74 59.9532 153.836 60.1372 153.908C60.3212 153.972 60.5932 154.056 60.9532 154.16C61.4332 154.288 61.8252 154.42 62.1292 154.556C62.4412 154.684 62.7092 154.876 62.9332 155.132C63.1572 155.388 63.2732 155.728 63.2812 156.152C63.2812 156.528 63.1772 156.864 62.9692 157.16C62.7612 157.456 62.4652 157.688 62.0812 157.856C61.7052 158.024 61.2612 158.108 60.7492 158.108ZM66.3554 152.504V156.164C66.3554 156.412 66.4114 156.592 66.5234 156.704C66.6434 156.808 66.8434 156.86 67.1234 156.86H67.9634V158H66.8834C66.2674 158 65.7954 157.856 65.4674 157.568C65.1394 157.28 64.9754 156.812 64.9754 156.164V152.504H64.1954V151.388H64.9754V149.744H66.3554V151.388H67.9634V152.504H66.3554ZM75.2122 151.388V158H73.8442V157.22C73.6282 157.492 73.3442 157.708 72.9922 157.868C72.6482 158.02 72.2802 158.096 71.8882 158.096C71.3682 158.096 70.9002 157.988 70.4842 157.772C70.0762 157.556 69.7522 157.236 69.5122 156.812C69.2802 156.388 69.1642 155.876 69.1642 155.276V151.388H70.5202V155.072C70.5202 155.664 70.6682 156.12 70.9642 156.44C71.2602 156.752 71.6642 156.908 72.1762 156.908C72.6882 156.908 73.0922 156.752 73.3882 156.44C73.6922 156.12 73.8442 155.664 73.8442 155.072V151.388H75.2122ZM76.5612 154.664C76.5612 154 76.6972 153.412 76.9692 152.9C77.2492 152.388 77.6252 151.992 78.0972 151.712C78.5772 151.424 79.1092 151.28 79.6932 151.28C80.1252 151.28 80.5492 151.376 80.9652 151.568C81.3892 151.752 81.7252 152 81.9732 152.312V149.12H83.3532V158H81.9732V157.004C81.7492 157.324 81.4372 157.588 81.0372 157.796C80.6452 158.004 80.1932 158.108 79.6812 158.108C79.1052 158.108 78.5772 157.964 78.0972 157.676C77.6252 157.38 77.2492 156.972 76.9692 156.452C76.6972 155.924 76.5612 155.328 76.5612 154.664ZM81.9732 154.688C81.9732 154.232 81.8772 153.836 81.6852 153.5C81.5012 153.164 81.2572 152.908 80.9532 152.732C80.6492 152.556 80.3212 152.468 79.9692 152.468C79.6172 152.468 79.2892 152.556 78.9852 152.732C78.6812 152.9 78.4332 153.152 78.2412 153.488C78.0572 153.816 77.9652 154.208 77.9652 154.664C77.9652 155.12 78.0572 155.52 78.2412 155.864C78.4332 156.208 78.6812 156.472 78.9852 156.656C79.2972 156.832 79.6252 156.92 79.9692 156.92C80.3212 156.92 80.6492 156.832 80.9532 156.656C81.2572 156.48 81.5012 156.224 81.6852 155.888C81.8772 155.544 81.9732 155.144 81.9732 154.688ZM91.21 154.532C91.21 154.78 91.194 155.004 91.162 155.204H86.11C86.15 155.732 86.346 156.156 86.698 156.476C87.05 156.796 87.482 156.956 87.994 156.956C88.73 156.956 89.25 156.648 89.554 156.032H91.03C90.83 156.64 90.466 157.14 89.938 157.532C89.418 157.916 88.77 158.108 87.994 158.108C87.362 158.108 86.794 157.968 86.29 157.688C85.794 157.4 85.402 157 85.114 156.488C84.834 155.968 84.694 155.368 84.694 154.688C84.694 154.008 84.83 153.412 85.102 152.9C85.382 152.38 85.77 151.98 86.266 151.7C86.77 151.42 87.346 151.28 87.994 151.28C88.618 151.28 89.174 151.416 89.662 151.688C90.15 151.96 90.53 152.344 90.802 152.84C91.074 153.328 91.21 153.892 91.21 154.532ZM89.782 154.1C89.774 153.596 89.594 153.192 89.242 152.888C88.89 152.584 88.454 152.432 87.934 152.432C87.462 152.432 87.058 152.584 86.722 152.888C86.386 153.184 86.186 153.588 86.122 154.1H89.782ZM95.8923 151.28C96.4123 151.28 96.8763 151.388 97.2843 151.604C97.7003 151.82 98.0243 152.14 98.2563 152.564C98.4883 152.988 98.6043 153.5 98.6043 154.1V158H97.2483V154.304C97.2483 153.712 97.1003 153.26 96.8043 152.948C96.5083 152.628 96.1043 152.468 95.5923 152.468C95.0803 152.468 94.6723 152.628 94.3683 152.948C94.0723 153.26 93.9243 153.712 93.9243 154.304V158H92.5563V151.388H93.9243V152.144C94.1483 151.872 94.4323 151.66 94.7763 151.508C95.1283 151.356 95.5003 151.28 95.8923 151.28ZM101.945 152.504V156.164C101.945 156.412 102.001 156.592 102.113 156.704C102.233 156.808 102.433 156.86 102.713 156.86H103.553V158H102.473C101.857 158 101.385 157.856 101.057 157.568C100.729 157.28 100.565 156.812 100.565 156.164V152.504H99.7852V151.388H100.565V149.744H101.945V151.388H103.553V152.504H101.945ZM107.214 158.108C106.694 158.108 106.226 158.016 105.81 157.832C105.402 157.64 105.078 157.384 104.838 157.064C104.598 156.736 104.47 156.372 104.454 155.972H105.87C105.894 156.252 106.026 156.488 106.266 156.68C106.514 156.864 106.822 156.956 107.19 156.956C107.574 156.956 107.87 156.884 108.078 156.74C108.294 156.588 108.402 156.396 108.402 156.164C108.402 155.916 108.282 155.732 108.042 155.612C107.81 155.492 107.438 155.36 106.926 155.216C106.43 155.08 106.026 154.948 105.714 154.82C105.402 154.692 105.13 154.496 104.898 154.232C104.674 153.968 104.562 153.62 104.562 153.188C104.562 152.836 104.666 152.516 104.874 152.228C105.082 151.932 105.378 151.7 105.762 151.532C106.154 151.364 106.602 151.28 107.106 151.28C107.858 151.28 108.462 151.472 108.918 151.856C109.382 152.232 109.63 152.748 109.662 153.404H108.294C108.27 153.108 108.15 152.872 107.934 152.696C107.718 152.52 107.426 152.432 107.058 152.432C106.698 152.432 106.422 152.5 106.23 152.636C106.038 152.772 105.942 152.952 105.942 153.176C105.942 153.352 106.006 153.5 106.134 153.62C106.262 153.74 106.418 153.836 106.602 153.908C106.786 153.972 107.058 154.056 107.418 154.16C107.898 154.288 108.29 154.42 108.594 154.556C108.906 154.684 109.174 154.876 109.398 155.132C109.622 155.388 109.738 155.728 109.746 156.152C109.746 156.528 109.642 156.864 109.434 157.16C109.226 157.456 108.93 157.688 108.546 157.856C108.17 158.024 107.726 158.108 107.214 158.108ZM113.885 154.664C113.885 154 114.021 153.412 114.293 152.9C114.573 152.388 114.949 151.992 115.421 151.712C115.901 151.424 116.429 151.28 117.005 151.28C117.525 151.28 117.977 151.384 118.361 151.592C118.753 151.792 119.065 152.044 119.297 152.348V151.388H120.677V158H119.297V157.016C119.065 157.328 118.749 157.588 118.349 157.796C117.949 158.004 117.493 158.108 116.981 158.108C116.413 158.108 115.893 157.964 115.421 157.676C114.949 157.38 114.573 156.972 114.293 156.452C114.021 155.924 113.885 155.328 113.885 154.664ZM119.297 154.688C119.297 154.232 119.201 153.836 119.009 153.5C118.825 153.164 118.581 152.908 118.277 152.732C117.973 152.556 117.645 152.468 117.293 152.468C116.941 152.468 116.613 152.556 116.309 152.732C116.005 152.9 115.757 153.152 115.565 153.488C115.381 153.816 115.289 154.208 115.289 154.664C115.289 155.12 115.381 155.52 115.565 155.864C115.757 156.208 116.005 156.472 116.309 156.656C116.621 156.832 116.949 156.92 117.293 156.92C117.645 156.92 117.973 156.832 118.277 156.656C118.581 156.48 118.825 156.224 119.009 155.888C119.201 155.544 119.297 155.144 119.297 154.688ZM123.842 152.348C124.042 152.012 124.306 151.752 124.634 151.568C124.97 151.376 125.366 151.28 125.822 151.28V152.696H125.474C124.938 152.696 124.53 152.832 124.25 153.104C123.978 153.376 123.842 153.848 123.842 154.52V158H122.474V151.388H123.842V152.348ZM129.948 158.108C129.324 158.108 128.76 157.968 128.256 157.688C127.752 157.4 127.356 157 127.068 156.488C126.78 155.968 126.636 155.368 126.636 154.688C126.636 154.016 126.784 153.42 127.08 152.9C127.376 152.38 127.78 151.98 128.292 151.7C128.804 151.42 129.376 151.28 130.008 151.28C130.64 151.28 131.212 151.42 131.724 151.7C132.236 151.98 132.64 152.38 132.936 152.9C133.232 153.42 133.38 154.016 133.38 154.688C133.38 155.36 133.228 155.956 132.924 156.476C132.62 156.996 132.204 157.4 131.676 157.688C131.156 157.968 130.58 158.108 129.948 158.108ZM129.948 156.92C130.3 156.92 130.628 156.836 130.932 156.668C131.244 156.5 131.496 156.248 131.688 155.912C131.88 155.576 131.976 155.168 131.976 154.688C131.976 154.208 131.884 153.804 131.7 153.476C131.516 153.14 131.272 152.888 130.968 152.72C130.664 152.552 130.336 152.468 129.984 152.468C129.632 152.468 129.304 152.552 129 152.72C128.704 152.888 128.468 153.14 128.292 153.476C128.116 153.804 128.028 154.208 128.028 154.688C128.028 155.4 128.208 155.952 128.568 156.344C128.936 156.728 129.396 156.92 129.948 156.92ZM140.72 151.388V158H139.352V157.22C139.136 157.492 138.852 157.708 138.5 157.868C138.156 158.02 137.788 158.096 137.396 158.096C136.876 158.096 136.408 157.988 135.992 157.772C135.584 157.556 135.26 157.236 135.02 156.812C134.788 156.388 134.672 155.876 134.672 155.276V151.388H136.028V155.072C136.028 155.664 136.176 156.12 136.472 156.44C136.768 156.752 137.172 156.908 137.684 156.908C138.196 156.908 138.6 156.752 138.896 156.44C139.2 156.12 139.352 155.664 139.352 155.072V151.388H140.72ZM145.861 151.28C146.381 151.28 146.845 151.388 147.253 151.604C147.669 151.82 147.993 152.14 148.225 152.564C148.457 152.988 148.573 153.5 148.573 154.1V158H147.217V154.304C147.217 153.712 147.069 153.26 146.773 152.948C146.477 152.628 146.073 152.468 145.561 152.468C145.049 152.468 144.641 152.628 144.337 152.948C144.041 153.26 143.893 153.712 143.893 154.304V158H142.525V151.388H143.893V152.144C144.117 151.872 144.401 151.66 144.745 151.508C145.097 151.356 145.469 151.28 145.861 151.28ZM149.862 154.664C149.862 154 149.998 153.412 150.27 152.9C150.55 152.388 150.926 151.992 151.398 151.712C151.878 151.424 152.41 151.28 152.994 151.28C153.426 151.28 153.85 151.376 154.266 151.568C154.69 151.752 155.026 152 155.274 152.312V149.12H156.654V158H155.274V157.004C155.05 157.324 154.738 157.588 154.338 157.796C153.946 158.004 153.494 158.108 152.982 158.108C152.406 158.108 151.878 157.964 151.398 157.676C150.926 157.38 150.55 156.972 150.27 156.452C149.998 155.924 149.862 155.328 149.862 154.664ZM155.274 154.688C155.274 154.232 155.178 153.836 154.986 153.5C154.802 153.164 154.558 152.908 154.254 152.732C153.95 152.556 153.622 152.468 153.27 152.468C152.918 152.468 152.59 152.556 152.286 152.732C151.982 152.9 151.734 153.152 151.542 153.488C151.358 153.816 151.266 154.208 151.266 154.664C151.266 155.12 151.358 155.52 151.542 155.864C151.734 156.208 151.982 156.472 152.286 156.656C152.598 156.832 152.926 156.92 153.27 156.92C153.622 156.92 153.95 156.832 154.254 156.656C154.558 156.48 154.802 156.224 154.986 155.888C155.178 155.544 155.274 155.144 155.274 154.688ZM81.3612 170.504V174.164C81.3612 174.412 81.4172 174.592 81.5292 174.704C81.6492 174.808 81.8492 174.86 82.1292 174.86H82.9692V176H81.8892C81.2732 176 80.8012 175.856 80.4732 175.568C80.1452 175.28 79.9812 174.812 79.9812 174.164V170.504H79.2012V169.388H79.9812V167.744H81.3612V169.388H82.9692V170.504H81.3612ZM87.6501 169.28C88.1541 169.28 88.6021 169.388 88.9941 169.604C89.3941 169.82 89.7061 170.14 89.9301 170.564C90.1621 170.988 90.2781 171.5 90.2781 172.1V176H88.9221V172.304C88.9221 171.712 88.7741 171.26 88.4781 170.948C88.1821 170.628 87.7781 170.468 87.2661 170.468C86.7541 170.468 86.3461 170.628 86.0421 170.948C85.7461 171.26 85.5981 171.712 85.5981 172.304V176H84.2301V167.12H85.5981V170.156C85.8301 169.876 86.1221 169.66 86.4741 169.508C86.8341 169.356 87.2261 169.28 87.6501 169.28ZM98.083 172.532C98.083 172.78 98.067 173.004 98.035 173.204H92.983C93.023 173.732 93.219 174.156 93.571 174.476C93.923 174.796 94.355 174.956 94.867 174.956C95.603 174.956 96.123 174.648 96.427 174.032H97.903C97.703 174.64 97.339 175.14 96.811 175.532C96.291 175.916 95.643 176.108 94.867 176.108C94.235 176.108 93.667 175.968 93.163 175.688C92.667 175.4 92.275 175 91.987 174.488C91.707 173.968 91.567 173.368 91.567 172.688C91.567 172.008 91.703 171.412 91.975 170.9C92.255 170.38 92.643 169.98 93.139 169.7C93.643 169.42 94.219 169.28 94.867 169.28C95.491 169.28 96.047 169.416 96.535 169.688C97.023 169.96 97.403 170.344 97.675 170.84C97.947 171.328 98.083 171.892 98.083 172.532ZM96.655 172.1C96.647 171.596 96.467 171.192 96.115 170.888C95.763 170.584 95.327 170.432 94.807 170.432C94.335 170.432 93.931 170.584 93.595 170.888C93.259 171.184 93.059 171.588 92.995 172.1H96.655ZM105.21 169.28C105.722 169.28 106.174 169.384 106.566 169.592C106.966 169.792 107.278 170.044 107.502 170.348V169.388H108.882V176.108C108.882 176.716 108.754 177.256 108.498 177.728C108.242 178.208 107.87 178.584 107.382 178.856C106.902 179.128 106.326 179.264 105.654 179.264C104.758 179.264 104.014 179.052 103.422 178.628C102.83 178.212 102.494 177.644 102.414 176.924H103.77C103.874 177.268 104.094 177.544 104.43 177.752C104.774 177.968 105.182 178.076 105.654 178.076C106.206 178.076 106.65 177.908 106.986 177.572C107.33 177.236 107.502 176.748 107.502 176.108V175.004C107.27 175.316 106.954 175.58 106.554 175.796C106.162 176.004 105.714 176.108 105.21 176.108C104.634 176.108 104.106 175.964 103.626 175.676C103.154 175.38 102.778 174.972 102.498 174.452C102.226 173.924 102.09 173.328 102.09 172.664C102.09 172 102.226 171.412 102.498 170.9C102.778 170.388 103.154 169.992 103.626 169.712C104.106 169.424 104.634 169.28 105.21 169.28ZM107.502 172.688C107.502 172.232 107.406 171.836 107.214 171.5C107.03 171.164 106.786 170.908 106.482 170.732C106.178 170.556 105.85 170.468 105.498 170.468C105.146 170.468 104.818 170.556 104.514 170.732C104.21 170.9 103.962 171.152 103.77 171.488C103.586 171.816 103.494 172.208 103.494 172.664C103.494 173.12 103.586 173.52 103.77 173.864C103.962 174.208 104.21 174.472 104.514 174.656C104.826 174.832 105.154 174.92 105.498 174.92C105.85 174.92 106.178 174.832 106.482 174.656C106.786 174.48 107.03 174.224 107.214 173.888C107.406 173.544 107.502 173.144 107.502 172.688ZM112.047 167.12V176H110.679V167.12H112.047ZM116.711 176.108C116.087 176.108 115.523 175.968 115.019 175.688C114.515 175.4 114.119 175 113.831 174.488C113.543 173.968 113.399 173.368 113.399 172.688C113.399 172.016 113.547 171.42 113.843 170.9C114.139 170.38 114.543 169.98 115.055 169.7C115.567 169.42 116.139 169.28 116.771 169.28C117.403 169.28 117.975 169.42 118.487 169.7C118.999 169.98 119.403 170.38 119.699 170.9C119.995 171.42 120.143 172.016 120.143 172.688C120.143 173.36 119.991 173.956 119.687 174.476C119.383 174.996 118.967 175.4 118.439 175.688C117.919 175.968 117.343 176.108 116.711 176.108ZM116.711 174.92C117.063 174.92 117.391 174.836 117.695 174.668C118.007 174.5 118.259 174.248 118.451 173.912C118.643 173.576 118.739 173.168 118.739 172.688C118.739 172.208 118.647 171.804 118.463 171.476C118.279 171.14 118.035 170.888 117.731 170.72C117.427 170.552 117.099 170.468 116.747 170.468C116.395 170.468 116.067 170.552 115.763 170.72C115.467 170.888 115.231 171.14 115.055 171.476C114.879 171.804 114.791 172.208 114.791 172.688C114.791 173.4 114.971 173.952 115.331 174.344C115.699 174.728 116.159 174.92 116.711 174.92ZM122.864 170.372C123.096 170.052 123.412 169.792 123.812 169.592C124.22 169.384 124.672 169.28 125.168 169.28C125.752 169.28 126.28 169.42 126.752 169.7C127.224 169.98 127.596 170.38 127.868 170.9C128.14 171.412 128.276 172 128.276 172.664C128.276 173.328 128.14 173.924 127.868 174.452C127.596 174.972 127.22 175.38 126.74 175.676C126.268 175.964 125.744 176.108 125.168 176.108C124.656 176.108 124.2 176.008 123.8 175.808C123.408 175.608 123.096 175.352 122.864 175.04V176H121.496V167.12H122.864V170.372ZM126.884 172.664C126.884 172.208 126.788 171.816 126.596 171.488C126.412 171.152 126.164 170.9 125.852 170.732C125.548 170.556 125.22 170.468 124.868 170.468C124.524 170.468 124.196 170.556 123.884 170.732C123.58 170.908 123.332 171.164 123.14 171.5C122.956 171.836 122.864 172.232 122.864 172.688C122.864 173.144 122.956 173.544 123.14 173.888C123.332 174.224 123.58 174.48 123.884 174.656C124.196 174.832 124.524 174.92 124.868 174.92C125.22 174.92 125.548 174.832 125.852 174.656C126.164 174.472 126.412 174.208 126.596 173.864C126.788 173.52 126.884 173.12 126.884 172.664ZM135.689 172.532C135.689 172.78 135.673 173.004 135.641 173.204H130.589C130.629 173.732 130.825 174.156 131.177 174.476C131.529 174.796 131.961 174.956 132.473 174.956C133.209 174.956 133.729 174.648 134.033 174.032H135.509C135.309 174.64 134.945 175.14 134.417 175.532C133.897 175.916 133.249 176.108 132.473 176.108C131.841 176.108 131.273 175.968 130.769 175.688C130.273 175.4 129.881 175 129.593 174.488C129.313 173.968 129.173 173.368 129.173 172.688C129.173 172.008 129.309 171.412 129.581 170.9C129.861 170.38 130.249 169.98 130.745 169.7C131.249 169.42 131.825 169.28 132.473 169.28C133.097 169.28 133.653 169.416 134.141 169.688C134.629 169.96 135.009 170.344 135.281 170.84C135.553 171.328 135.689 171.892 135.689 172.532ZM134.261 172.1C134.253 171.596 134.073 171.192 133.721 170.888C133.369 170.584 132.933 170.432 132.413 170.432C131.941 170.432 131.537 170.584 131.201 170.888C130.865 171.184 130.665 171.588 130.601 172.1H134.261Z" fill="#333333"/>
<rect x="92" y="58" width="30" height="30" rx="15" fill="#E1FFEE"/>
<path d="M107 73C107.796 73 108.559 72.6839 109.121 72.1213C109.684 71.5587 110 70.7956 110 70C110 69.2044 109.684 68.4413 109.121 67.8787C108.559 67.3161 107.796 67 107 67C106.204 67 105.441 67.3161 104.879 67.8787C104.316 68.4413 104 69.2044 104 70C104 70.7956 104.316 71.5587 104.879 72.1213C105.441 72.6839 106.204 73 107 73ZM109 70C109 70.5304 108.789 71.0391 108.414 71.4142C108.039 71.7893 107.53 72 107 72C106.47 72 105.961 71.7893 105.586 71.4142C105.211 71.0391 105 70.5304 105 70C105 69.4696 105.211 68.9609 105.586 68.5858C105.961 68.2107 106.47 68 107 68C107.53 68 108.039 68.2107 108.414 68.5858C108.789 68.9609 109 69.4696 109 70ZM113 78C113 79 112 79 112 79H102C102 79 101 79 101 78C101 77 102 74 107 74C112 74 113 77 113 78ZM112 77.996C111.999 77.75 111.846 77.01 111.168 76.332C110.516 75.68 109.289 75 107 75C104.71 75 103.484 75.68 102.832 76.332C102.154 77.01 102.002 77.75 102 77.996H112Z" fill="#09B451"/>
</g>
<defs>
<filter id="filter0_d_0_1159" x="0.301888" y="0.301888" width="214.396" height="231.396" filterUnits="userSpaceOnUse" color-interpolation-filters="sRGB">
<feFlood flood-opacity="0" result="BackgroundImageFix"/>
<feColorMatrix in="SourceAlpha" type="matrix" values="0 0 0 0 0 0 0 0 0 0 0 0 0 0 0 0 0 0 127 0" result="hardAlpha"/>
<feOffset/>
<feGaussianBlur stdDeviation="21.3491"/>
<feComposite in2="hardAlpha" operator="out"/>
<feColorMatrix type="matrix" values="0 0 0 0 0.4375 0 0 0 0 0.4375 0 0 0 0 0.4375 0 0 0 0.25 0"/>
<feBlend mode="normal" in2="BackgroundImageFix" result="effect1_dropShadow_0_1159"/>
<feBlend mode="normal" in="SourceGraphic" in2="effect1_dropShadow_0_1159" result="shape"/>
</filter>
</defs>
</svg>
